<svg xmlns="http://www.w3.org/2000/svg" viewBox="0 0 21 21"><title>i_view--two</title><path d="M2831.48,1716.33h-6a2.25,2.25,0,0,0-1.53,1.75v6a1.66,1.66,0,0,0,1.53,1.24h6a1.64,1.64,0,0,0,1.52-1.24v-6A2.23,2.23,0,0,0,2831.48,1716.33Z" transform="translate(-2812 -1716.33)" fill="inherit"/><path d="M2819.48,1716.33h-6a2.25,2.25,0,0,0-1.53,1.75v6a1.66,1.66,0,0,0,1.53,1.24h6a1.64,1.64,0,0,0,1.52-1.24v-6A2.23,2.23,0,0,0,2819.48,1716.33Z" transform="translate(-2812 -1716.33)" fill="inherit"/><path d="M2819.48,1728.33h-6a2.25,2.25,0,0,0-1.53,1.75v6a1.66,1.66,0,0,0,1.53,1.24h6a1.64,1.64,0,0,0,1.52-1.24v-6A2.23,2.23,0,0,0,2819.48,1728.33Z" transform="translate(-2812 -1716.33)" fill="inherit"/><path d="M2831.48,1728.33h-6a2.25,2.25,0,0,0-1.53,1.75v6a1.66,1.66,0,0,0,1.53,1.24h6a1.64,1.64,0,0,0,1.52-1.24v-6A2.23,2.23,0,0,0,2831.48,1728.33Z" transform="translate(-2812 -1716.33)" fill="inherit"/></svg>