<svg xmlns="http://www.w3.org/2000/svg" viewBox="0 0 21.05 21"><title>i_view--three</title><path d="M2816.38,1691.33h-4.17c-0.43,0-.22.63-0.22,1v3.34c0,0.34-.21.69,0.22,0.69h4.17a0.62,0.62,0,0,0,.62-0.69v-3.34A0.91,0.91,0,0,0,2816.38,1691.33Z" transform="translate(-2811.95 -1691.33)" fill="inherit"/><path d="M2824.15,1691.33h-3.34a1.19,1.19,0,0,0-.81,1v3.34a0.87,0.87,0,0,0,.81.69h3.34a0.92,0.92,0,0,0,.85-0.69v-3.34A1.24,1.24,0,0,0,2824.15,1691.33Z" transform="translate(-2811.95 -1691.33)" fill="inherit"/><path d="M2833,1692a0.62,0.62,0,0,0-.62-0.62h-3.76a0.62,0.62,0,0,0-.62.62v3.76a0.62,0.62,0,0,0,.62.62h3.76a0.62,0.62,0,0,0,.62-0.62V1692Z" transform="translate(-2811.95 -1691.33)" fill="inherit"/><path d="M2817,1700a0.62,0.62,0,0,0-.62-0.62h-3.76a0.62,0.62,0,0,0-.62.62v3.76a0.62,0.62,0,0,0,.62.62h3.76a0.62,0.62,0,0,0,.62-0.62V1700Z" transform="translate(-2811.95 -1691.33)" fill="inherit"/><path d="M2824.15,1699.33h-3.34a0.72,0.72,0,0,0-.81.61v4.17c0,0.43.47,0.23,0.81,0.23h3.34c0.34,0,.85.2,0.85-0.23v-4.17A0.77,0.77,0,0,0,2824.15,1699.33Z" transform="translate(-2811.95 -1691.33)" fill="inherit"/><path d="M2833,1700a0.62,0.62,0,0,0-.62-0.62h-3.76a0.62,0.62,0,0,0-.62.62v3.8a0.58,0.58,0,0,0,.62.58h3.76a0.58,0.58,0,0,0,.62-0.58V1700Z" transform="translate(-2811.95 -1691.33)" fill="inherit"/><path d="M2817,1708a0.62,0.62,0,0,0-.62-0.62h-3.76a0.62,0.62,0,0,0-.62.62v3.76a0.62,0.62,0,0,0,.62.62h3.76a0.62,0.62,0,0,0,.62-0.62V1708Z" transform="translate(-2811.95 -1691.33)" fill="inherit"/><path d="M2824.15,1707.33h-3.34c-0.34,0-.81-0.25-0.81.18v4.16a0.77,0.77,0,0,0,.81.66h3.34a0.81,0.81,0,0,0,.85-0.66v-4.16C2825,1707.09,2824.49,1707.33,2824.15,1707.33Z" transform="translate(-2811.95 -1691.33)" fill="inherit"/><path d="M2833,1708a0.62,0.62,0,0,0-.62-0.62h-3.76a0.62,0.62,0,0,0-.62.62v3.76a0.62,0.62,0,0,0,.62.62h3.76a0.62,0.62,0,0,0,.62-0.62V1708Z" transform="translate(-2811.95 -1691.33)" fill="inherit"/></svg>