<?xml version="1.0" encoding="utf-8"?><svg xmlns="http://www.w3.org/2000/svg" xmlns:xlink="http://www.w3.org/1999/xlink"><symbol viewBox="0 0 57.947 57.947" id="hearts"><path d="M28.947 56.486c15.685-11.277 23.532-21.592 27.222-29.46 4.311-9.193.561-20.589-8.845-24.413C36.268-1.88 28.947 8.486 28.947 8.486S21.678-1.907 10.623 2.588C1.217 6.412-2.533 17.808 1.778 27.001c3.69 7.867 11.484 18.209 27.169 29.485z" fill="#fff"/></symbol><symbol viewBox="0 0 44.238 44.238" id="i-close"><path d="M15.533 29.455a.751.751 0 0 1-.53-1.282l13.171-13.171a.75.75 0 1 1 1.061 1.061L16.063 29.235a.744.744 0 0 1-.53.22z" fill="#546e7a"/><path d="M28.704 29.455a.744.744 0 0 1-.53-.22L15.002 16.064a.75.75 0 1 1 1.061-1.061l13.171 13.171a.751.751 0 0 1-.53 1.281z" fill="#546e7a"/><path d="M22.119 44.237C9.922 44.237 0 34.315 0 22.12 0 9.924 9.922.001 22.119.001S44.238 9.923 44.238 22.12s-9.924 22.117-22.119 22.117zm0-42.736C10.75 1.501 1.5 10.751 1.5 22.12s9.25 20.619 20.619 20.619 20.619-9.25 20.619-20.619-9.25-20.619-20.619-20.619z" fill="#546e7a"/></symbol><symbol viewBox="0 0 21.05 21" id="i-view-three"><title>i_view--three</title><path d="M4.43 0H.26C-.17 0 .04.63.04 1v3.34c0 .34-.21.69.22.69h4.17a.62.62 0 0 0 .62-.69V1a.91.91 0 0 0-.62-1zM12.2 0H8.86a1.19 1.19 0 0 0-.81 1v3.34a.87.87 0 0 0 .81.69h3.34a.92.92 0 0 0 .85-.69V1a1.24 1.24 0 0 0-.85-1zM21.05.67a.62.62 0 0 0-.62-.62h-3.76a.62.62 0 0 0-.62.62v3.76a.62.62 0 0 0 .62.62h3.76a.62.62 0 0 0 .62-.62V.67zM5.05 8.67a.62.62 0 0 0-.62-.62H.67a.62.62 0 0 0-.62.62v3.76a.62.62 0 0 0 .62.62h3.76a.62.62 0 0 0 .62-.62V8.67zM12.2 8H8.86a.72.72 0 0 0-.81.61v4.17c0 .43.47.23.81.23h3.34c.34 0 .85.2.85-.23V8.61A.77.77 0 0 0 12.2 8zM21.05 8.67a.62.62 0 0 0-.62-.62h-3.76a.62.62 0 0 0-.62.62v3.8a.58.58 0 0 0 .62.58h3.76a.58.58 0 0 0 .62-.58v-3.8zM5.05 16.67a.62.62 0 0 0-.62-.62H.67a.62.62 0 0 0-.62.62v3.76a.62.62 0 0 0 .62.62h3.76a.62.62 0 0 0 .62-.62v-3.76zM12.2 16H8.86c-.34 0-.81-.25-.81.18v4.16a.77.77 0 0 0 .81.66h3.34a.81.81 0 0 0 .85-.66v-4.16c0-.42-.51-.18-.85-.18zM21.05 16.67a.62.62 0 0 0-.62-.62h-3.76a.62.62 0 0 0-.62.62v3.76a.62.62 0 0 0 .62.62h3.76a.62.62 0 0 0 .62-.62v-3.76z" fill="inherit"/></symbol><symbol viewBox="0 0 21 21" id="i-view-two"><title>i_view--two</title><path d="M19.48 0h-6a2.25 2.25 0 0 0-1.53 1.75v6a1.66 1.66 0 0 0 1.53 1.24h6A1.64 1.64 0 0 0 21 7.75v-6A2.23 2.23 0 0 0 19.48 0zM7.48 0h-6A2.25 2.25 0 0 0-.05 1.75v6a1.66 1.66 0 0 0 1.53 1.24h6A1.64 1.64 0 0 0 9 7.75v-6A2.23 2.23 0 0 0 7.48 0zM7.48 12h-6a2.25 2.25 0 0 0-1.53 1.75v6a1.66 1.66 0 0 0 1.53 1.24h6A1.64 1.64 0 0 0 9 19.75v-6A2.23 2.23 0 0 0 7.48 12zM19.48 12h-6a2.25 2.25 0 0 0-1.53 1.75v6a1.66 1.66 0 0 0 1.53 1.24h6A1.64 1.64 0 0 0 21 19.75v-6A2.23 2.23 0 0 0 19.48 12z" fill="inherit"/></symbol><symbol viewBox="0 0 540.129 540.129" id="loader"><g fill="#f04a22"><path d="M28.074 204.831C64.043 70.586 202.483-9.364 336.746 26.623 403.513 44.5 461.549 94.572 494.991 162.196l-51.11-13.696-4.663 17.409 69.562 18.633a9.241 9.241 0 0 0 2.322.306 9.013 9.013 0 0 0 4.519-1.225c2.071-1.206 3.583-3.151 4.195-5.473l18.633-69.562-17.391-4.645-12.235 45.66C472.75 79.709 411.622 28.017 341.409 9.215 197.64-29.275 49.209 56.346 10.683 200.168c-6.139 22.917-9.271 46.411-9.271 69.886h18.002a252.343 252.343 0 0 1 8.66-65.223zM520.714 270.054c0 21.891-2.916 43.836-8.641 65.223-35.97 134.246-174.41 214.195-308.673 178.208-66.766-17.877-124.803-67.949-158.245-135.572l51.113 13.696 4.663-17.409-69.562-18.633c-2.304-.576-4.753-.306-6.823.918-2.071 1.206-3.583 3.151-4.195 5.473L1.718 431.52l17.39 4.644 12.22-45.651c36.073 69.89 97.199 121.579 167.41 140.381 23.313 6.247 46.735 9.235 69.814 9.235 119.232 0 228.634-79.697 260.894-200.189 6.139-22.917 9.271-46.411 9.271-69.886h-18.003z"/></g></symbol><symbol viewBox="0 0 430 430" id="scissors"><path fill="#acabb1" d="M258.316 230l20-20 10-160L254.5 0 215 165.77l26.473 111.099zM200.38 309.88l14.616.021H215l-14.609-.021-11.864-33.011-7.882 33.082 19.75-.029z"/><circle cx="144.5" cy="370" r="30" fill="#fff"/><path d="M249.355 309.951l-7.883-33.082L215 165.77 175.5 0l-33.816 50 10 160 20 20 16.844 46.869 11.863 33.011 48.964.071zM230.5 275c0 8.284-6.716 15-15 15s-15-6.716-15-15 6.716-15 15-15 15 6.716 15 15z" fill="#dedde0"/><path d="M285.5 310c-12.475 0-24.059 3.81-33.656 10.325l-2.455-10.374h-68.777l-2.455 10.374C168.559 313.81 156.975 310 144.5 310c-33.138 0-60 26.863-60 60s26.862 60 60 60c27.154 0 50.083-18.043 57.482-42.789l.025.072L215 350.862l12.992 36.421.025-.072C235.417 411.957 258.346 430 285.5 430c33.138 0 60-26.863 60-60s-26.862-60-60-60zm-141 90c-16.569 0-30-13.432-30-30s13.431-30 30-30 30 13.432 30 30-13.431 30-30 30zm141 0c-16.569 0-30-13.432-30-30s13.431-30 30-30 30 13.432 30 30-13.431 30-30 30z" fill="#ff9811"/><circle cx="285.5" cy="370" r="30" fill="#fff"/><circle cx="215.5" cy="275" r="15" fill="#fff"/></symbol></svg>